<svg width="22" height="22" viewBox="0 0 22 22" fill="none" xmlns="http://www.w3.org/2000/svg">
<path d="M15.796 13.2C15.884 12.474 15.95 11.748 15.95 11C15.95 10.252 15.884 9.526 15.796 8.8H19.514C19.69 9.504 19.8 10.241 19.8 11C19.8 11.759 19.69 12.496 19.514 13.2M13.849 19.316C14.509 18.095 15.015 16.775 15.367 15.4H18.612C17.5463 17.2351 15.8555 18.6252 13.849 19.316ZM13.574 13.2H8.426C8.316 12.474 8.25 11.748 8.25 11C8.25 10.252 8.316 9.515 8.426 8.8H13.574C13.673 9.515 13.75 10.252 13.75 11C13.75 11.748 13.673 12.474 13.574 13.2ZM11 19.756C10.087 18.436 9.35 16.973 8.899 15.4H13.101C12.65 16.973 11.913 18.436 11 19.756ZM6.6 6.6H3.388C4.44274 4.75994 6.13228 3.36764 8.14 2.684C7.48 3.905 6.985 5.225 6.6 6.6ZM3.388 15.4H6.6C6.985 16.775 7.48 18.095 8.14 19.316C6.13649 18.6248 4.44933 17.2345 3.388 15.4ZM2.486 13.2C2.31 12.496 2.2 11.759 2.2 11C2.2 10.241 2.31 9.504 2.486 8.8H6.204C6.116 9.526 6.05 10.252 6.05 11C6.05 11.748 6.116 12.474 6.204 13.2M11 2.233C11.913 3.553 12.65 5.027 13.101 6.6H8.899C9.35 5.027 10.087 3.553 11 2.233ZM18.612 6.6H15.367C15.0227 5.2376 14.5129 3.92249 13.849 2.684C15.873 3.377 17.556 4.774 18.612 6.6ZM11 0C4.917 0 0 4.95 0 11C0 13.9174 1.15893 16.7153 3.22183 18.7782C4.24327 19.7996 5.4559 20.6099 6.79048 21.1627C8.12506 21.7155 9.55546 22 11 22C13.9174 22 16.7153 20.8411 18.7782 18.7782C20.8411 16.7153 22 13.9174 22 11C22 9.55546 21.7155 8.12506 21.1627 6.79048C20.6099 5.4559 19.7996 4.24327 18.7782 3.22183C17.7567 2.20038 16.5441 1.39013 15.2095 0.837325C13.8749 0.284523 12.4445 0 11 0Z" fill="#E4E4E9"/>
</svg>
