<svg width="24" height="20" viewBox="0 0 24 20" fill="none" xmlns="http://www.w3.org/2000/svg">
<path d="M20.3302 2.21119C18.7563 1.46947 17.0912 0.942441 15.3789 0.644043C15.1656 1.03241 14.9165 1.55476 14.7446 1.97032C12.8985 1.69073 11.0693 1.69073 9.25715 1.97032C9.0854 1.55485 8.83058 1.03241 8.61533 0.644043C6.90139 0.942578 5.23486 1.47095 3.66018 2.21507C0.526681 6.98432 -0.322788 11.635 0.1019 16.2198C2.18024 17.783 4.19437 18.7326 6.17455 19.354C6.66668 18.6724 7.10171 17.9507 7.47515 17.1965C6.76417 16.9239 6.07877 16.5879 5.42709 16.1926C5.59858 16.0646 5.76604 15.9312 5.92921 15.7925C9.87815 17.6529 14.1689 17.6529 18.0708 15.7925C18.2346 15.9303 18.4021 16.0637 18.5728 16.1926C17.9201 16.589 17.2334 16.9256 16.521 17.1985C16.8965 17.9558 17.3308 18.6781 17.8216 19.3559C19.8036 18.7346 21.8196 17.785 23.898 16.2198C24.3964 10.9049 23.0467 6.29682 20.3302 2.2111V2.21119ZM8.01318 13.4002C6.82771 13.4002 5.85552 12.2856 5.85552 10.9282C5.85552 9.57087 6.80699 8.4543 8.01318 8.4543C9.21946 8.4543 10.1916 9.56888 10.1708 10.9282C10.1727 12.2856 9.21946 13.4002 8.01318 13.4002ZM15.9867 13.4002C14.8012 13.4002 13.8291 12.2856 13.8291 10.9282C13.8291 9.57087 14.7805 8.4543 15.9867 8.4543C17.193 8.4543 18.1651 9.56888 18.1444 10.9282C18.1444 12.2856 17.193 13.4002 15.9867 13.4002Z" fill="#5865F2"/>
</svg>
