<svg width="24" height="20" viewBox="0 0 24 20" fill="none" xmlns="http://www.w3.org/2000/svg">
<path d="M24 2.70389C23.1013 3.09416 22.148 3.35032 21.1719 3.46388C22.1887 2.86655 22.9693 1.92066 23.3369 0.793647C22.3704 1.35586 21.3129 1.75197 20.2103 1.96486C19.312 1.02688 18.0324 0.440674 16.6162 0.440674C13.8968 0.440674 11.6921 2.60171 11.6921 5.26706C11.6921 5.6454 11.7357 6.01372 11.8196 6.36706C7.72744 6.16572 4.09931 4.24426 1.67072 1.32416C1.24697 2.037 1.00416 2.86618 1.00416 3.75059C1.00416 5.42513 1.8735 6.90236 3.19462 7.76793C2.4127 7.74392 1.64798 7.53691 0.964313 7.16417C0.964031 7.18439 0.964031 7.20461 0.964031 7.22491C0.964031 9.5634 2.66128 11.5142 4.91372 11.9576C4.18864 12.1509 3.42809 12.1792 2.69016 12.0403C3.31669 13.9578 5.13516 15.3531 7.28972 15.3922C5.60456 16.6866 3.48141 17.4583 1.17459 17.4583C0.777094 17.4583 0.385219 17.4354 0 17.3908C2.17903 18.7603 4.76719 19.5593 7.54781 19.5593C16.6047 19.5593 21.5573 12.2048 21.5573 5.8268C21.5573 5.61747 21.5526 5.40932 21.543 5.20237C22.507 4.51929 23.339 3.67323 24 2.70389Z" fill="#55ACEE"/>
</svg>
