<svg width="71" height="69" viewBox="0 0 71 69" fill="none" xmlns="http://www.w3.org/2000/svg">
<path d="M16.6509 12.0816C16.6509 18.6125 20.2397 23.7208 24.766 23.7208C29.3247 23.7208 32.8488 18.6125 32.8488 12.0816C32.8488 5.51838 29.3247 0.442383 24.766 0.442383C20.2073 0.442383 16.6509 5.51838 16.6509 12.0816ZM38.0865 12.0816C38.0865 18.6125 41.6429 23.7208 46.2016 23.7208C50.728 23.7208 54.2844 18.6125 54.2844 12.0816C54.2844 5.51838 50.728 0.442383 46.2016 0.442383C41.6429 0.442383 38.0865 5.51838 38.0865 12.0816ZM0.711639 31.0924C0.711639 37.6556 4.23574 42.7639 8.76211 42.7639C13.3208 42.7639 16.8772 37.6556 16.8772 31.0924C16.8772 24.5615 13.3208 19.4531 8.76211 19.4531C4.23574 19.4531 0.711639 24.5615 0.711639 31.0924ZM54.0904 31.0924C54.0904 37.6556 57.6145 42.7639 62.1732 42.7639C66.7319 42.7639 70.256 37.6556 70.256 31.0924C70.256 24.5615 66.7319 19.4531 62.1732 19.4531C57.6145 19.4531 54.0904 24.5615 54.0904 31.0924ZM10.7343 56.44C10.7343 63.1972 15.293 68.0146 21.9532 68.0146C25.2187 68.0146 27.6112 67.1093 29.842 66.301C31.6526 65.6867 33.3661 65.1048 35.4677 65.1048C37.5692 65.1048 39.2828 65.6867 41.0933 66.301C43.3565 67.1093 45.7167 68.0146 48.9821 68.0146C55.6423 68.0146 60.201 63.1972 60.201 56.44C60.201 50.7497 56.7739 47.8399 53.5731 45.2211C51.7949 43.7662 50.0814 42.4083 48.9174 40.6301C47.9798 39.2075 47.1716 37.6233 46.4603 36.0714C44.1001 31.06 42.2249 26.2427 35.4677 26.2427C28.7105 26.2427 26.8352 31.06 24.5074 36.0714C23.7638 37.6233 22.9878 39.1752 22.0502 40.5977C20.8863 42.3759 19.1404 43.7662 17.3622 45.2211C14.1614 47.8399 10.7343 50.7497 10.7343 56.44Z" fill="#26FBFF"/>
</svg>
