<svg width="20" height="21" viewBox="0 0 20 21" fill="none" xmlns="http://www.w3.org/2000/svg">
<path d="M13.2 10.9111C13.2 11.544 13.0123 12.1627 12.6607 12.6889C12.3091 13.2151 11.8093 13.6253 11.2246 13.8675C10.6399 14.1097 9.99645 14.1731 9.37571 14.0496C8.75497 13.9261 8.18479 13.6213 7.73726 13.1738C7.28973 12.7263 6.98496 12.1561 6.86149 11.5354C6.73801 10.9146 6.80138 10.2712 7.04359 9.68648C7.28579 9.10176 7.69594 8.60199 8.22218 8.25037C8.74841 7.89875 9.3671 7.71107 10 7.71107C10.8484 7.71204 11.6618 8.0495 12.2617 8.6494C12.8616 9.24931 13.199 10.0627 13.2 10.9111ZM20 6.51107V15.3111C19.9983 16.7958 19.4078 18.2192 18.3579 19.269C17.3081 20.3189 15.8847 20.9094 14.4 20.9111H5.6C4.1153 20.9094 2.6919 20.3189 1.64206 19.269C0.59222 18.2192 0.00168148 16.7958 0 15.3111V6.51107C0.00168148 5.02638 0.59222 3.60297 1.64206 2.55313C2.6919 1.50329 4.1153 0.912753 5.6 0.911072H14.4C15.8847 0.912753 17.3081 1.50329 18.3579 2.55313C19.4078 3.60297 19.9983 5.02638 20 6.51107ZM14.8 10.9111C14.8 9.96172 14.5185 9.03369 13.9911 8.24433C13.4636 7.45498 12.714 6.83975 11.8369 6.47645C10.9598 6.11315 9.99468 6.01809 9.06357 6.2033C8.13246 6.38851 7.27718 6.84567 6.60589 7.51696C5.9346 8.18825 5.47744 9.04353 5.29223 9.97464C5.10702 10.9057 5.20208 11.8709 5.56538 12.748C5.92868 13.625 6.54391 14.3747 7.33326 14.9021C8.12262 15.4296 9.05065 15.7111 10 15.7111C11.2726 15.7096 12.4927 15.2035 13.3925 14.3036C14.2924 13.4037 14.7986 12.1837 14.8 10.9111ZM16.4 5.71107C16.4 5.47373 16.3296 5.24173 16.1978 5.04439C16.0659 4.84705 15.8785 4.69324 15.6592 4.60242C15.4399 4.51159 15.1987 4.48783 14.9659 4.53413C14.7331 4.58043 14.5193 4.69472 14.3515 4.86254C14.1837 5.03037 14.0694 5.24419 14.0231 5.47696C13.9768 5.70974 14.0005 5.95102 14.0913 6.17029C14.1822 6.38956 14.336 6.57698 14.5333 6.70884C14.7307 6.84069 14.9627 6.91107 15.2 6.91107C15.5183 6.91107 15.8235 6.78464 16.0485 6.5596C16.2736 6.33456 16.4 6.02933 16.4 5.71107Z" fill="#65676B"/>
</svg>
