<svg width="20" height="21" viewBox="0 0 20 21" fill="none" xmlns="http://www.w3.org/2000/svg">
<path d="M18.1673 0.911072H1.83268C0.833333 0.911072 0 1.74441 0 2.74375V19.0784C0 20.0777 0.833333 20.9111 1.83268 20.9111H18.1673C19.1667 20.9111 20 20.0777 20 19.0784V2.74375C20 1.74441 19.1667 0.911072 18.1673 0.911072ZM5.83333 17.5777H2.5V8.41107H5.83333V17.5777ZM4.16667 7.32709C3.16732 7.32709 2.5 6.65977 2.5 5.82644C2.5 4.91172 3.16732 4.24441 4.16667 4.24441C5.16602 4.24441 5.83333 4.91172 5.83333 5.74506C5.83333 6.65977 5.16602 7.32709 4.16667 7.32709ZM17.5 17.5777H14.1667V12.5777C14.1667 11.2431 13.2487 10.9111 13.0013 10.9111C12.7507 10.9111 11.6667 11.0771 11.6667 12.5777C11.6667 12.7438 11.6667 17.5777 11.6667 17.5777H8.33333V8.41107H11.6667V9.74571C12.168 8.99375 13.0013 8.41107 14.5833 8.41107C16.1654 8.41107 17.5 9.66107 17.5 12.5777V17.5777Z" fill="#65676B"/>
</svg>
