<svg width="20" height="21" viewBox="0 0 20 21" fill="none" xmlns="http://www.w3.org/2000/svg">
<path d="M20 3.26903C19.2522 3.68096 18.4989 3.98636 17.6674 4.08579C18.4989 3.47499 19.1685 2.44516 19.4978 1.323C18.6663 1.9338 17.8348 2.34573 16.9196 2.5517C16.0826 1.52897 15 0.911072 13.8337 0.911072C11.5848 0.911072 9.74889 3.1696 9.74889 5.93948C9.74889 6.34431 9.74888 6.75624 9.83259 7.06874C5.53571 7.06874 2.58929 3.98636 0.591519 0.911072C0.172991 1.6284 0.00558002 2.5517 0.00558002 3.47499C0.00558002 5.21505 0.758929 6.75624 1.84152 7.67954C1.17188 7.58011 0.507813 7.37414 0.00558002 7.06874C0.00558002 7.06874 0.00558002 7.06874 0.00558002 7.16817C0.00558002 9.63266 1.42299 11.6781 3.25893 12.0901C2.92411 12.1895 2.58929 12.296 2.17076 12.296C1.92522 12.296 1.67411 12.296 1.42299 12.1966C1.92522 14.2491 4.25223 16.6071 6.08259 16.6071C4.66518 17.9352 3.34821 19.0929 0.714286 19.0929C0.379464 19.0929 0.647321 19.0929 0 19.0929C1.83036 20.5275 4.00112 20.9111 6.25 20.9111C13.8337 20.9111 17.9185 13.2193 17.9185 6.55028C17.9185 6.34431 17.9185 6.14545 17.9185 5.93948C18.75 5.21505 19.4196 4.29886 20 3.26903Z" fill="#65676B"/>
</svg>
